Coordinates
version=1
nRows=27
nColumns=12
inDegrees=yes

Units are S.I. units (second, meters, Newtons, ...)
Angles are in degrees

endheader
time	SC_y	SC_z	SC_x	AC_y	AC_z	AC_x	GH_y	GH_z	GH_yy	EL_x	PS_y
       0.0              -44.04          22.61          26.48          51.45         -5.602          12.69          178.1          9.499         -95.72          126.8          126.3
   0.04997              -44.04          22.61          26.49          51.45           -5.6          12.68          178.1          9.509         -95.73          126.7          126.3
   0.09993              -44.05          22.61           26.5          51.45         -5.599          12.68          178.1          9.519         -95.73          126.7          126.3
    0.1499              -44.05          22.61           26.5          51.45         -5.598          12.68          178.1          9.531         -95.74          126.7          126.2
    0.1999              -44.05          22.62          26.51          51.45         -5.596          12.68          178.0          9.543         -95.75          126.7          126.2
    0.2498              -44.05          22.62          26.52          51.45         -5.595          12.68          178.0          9.556         -95.76          126.7          126.2
    0.2998              -44.06          22.62          26.52          51.45         -5.593          12.67          178.0          9.569         -95.77          126.7          126.2
    0.3498              -44.06          22.62          26.53          51.44         -5.591          12.67          177.9          9.584         -95.77          126.7          126.2
    0.3997              -44.06          22.62          26.54          51.44         -5.589          12.67          177.9            9.6         -95.78          126.7          126.1
    0.4497              -44.07          22.62          26.55          51.44         -5.587          12.67          177.8          9.617         -95.79          126.6          126.1
    0.4997              -44.07          22.63          26.56          51.44         -5.585          12.66          177.8          9.635         -95.81          126.6          126.1
    0.5496              -44.08          22.63          26.57          51.44         -5.582          12.66          177.7          9.654         -95.82          126.6          126.1
    0.5996              -44.08          22.63          26.58          51.44          -5.58          12.66          177.7          9.675         -95.83          126.6          126.0
    0.6496              -44.08          22.63          26.59          51.44         -5.577          12.65          177.6          9.698         -95.85          126.6          126.0
    0.6995              -44.09          22.63          26.61          51.44         -5.574          12.65          177.6          9.723         -95.86          126.6          126.0
    0.7495               -44.1          22.64          26.62          51.43          -5.57          12.64          177.5          9.749         -95.88          126.5          125.9
    0.7995               -44.1          22.64          26.64          51.43         -5.567          12.64          177.4          9.778         -95.89          126.5          125.9
    0.8494              -44.11          22.64          26.66          51.43         -5.563          12.63          177.4           9.81         -95.91          126.5          125.9
    0.8994              -44.12          22.65          26.68          51.43         -5.559          12.63          177.3          9.844         -95.94          126.4          125.8
    0.9493              -44.12          22.65           26.7          51.43         -5.554          12.62          177.2          9.882         -95.96          126.4          125.8
    0.9993              -44.13          22.66          26.72          51.42         -5.549          12.62          177.1          9.924         -95.98          126.4          125.7
     1.049              -44.14          22.66          26.75          51.42         -5.543          12.61          177.0          9.969         -96.01          126.3          125.7
     1.099              -44.15          22.67          26.77          51.42         -5.537           12.6          176.8          10.02         -96.04          126.3          125.6
     1.149              -44.17          22.67           26.8          51.41          -5.53          12.59          176.7          10.08         -96.08          126.2          125.5
     1.199              -44.18          22.68          26.84          51.41         -5.522          12.58          176.5          10.14         -96.12          126.2          125.4
     1.249               -44.2          22.68          26.88           51.4         -5.513          12.57          176.4          10.21         -96.16          126.1          125.3
     1.299              -44.21          22.69          26.92           51.4         -5.504          12.56          176.2          10.28         -96.21          126.0          125.2
